<svg xmlns="http://www.w3.org/2000/svg" width="348.161" height="290.413" viewBox="0 0 348.161 290.413"><g transform="translate(-1025.489 -184.929)"><g transform="translate(1037.141 215.881)"><g transform="translate(0 0)"><path d="M4.791,192,1.6,188.814l74.942-74.03,81.689,19.328,74.486-86.429,65.734,2.553L333,3.1l3.647,2.735-36.012,49.05-65.916-2.644-74.851,86.976L78,119.8Z" transform="translate(-0.141 -3.1)" fill="#cecfd0" opacity="0.72"/><g transform="translate(146.157 120.558)"><g transform="translate(0 0)"><circle cx="11.761" cy="11.761" r="11.761" fill="#fff"/></g></g><g transform="translate(144.008 118.409)"><path d="M16.865,27.531A13.942,13.942,0,0,1,.272,16.865,14.083,14.083,0,0,1,10.939.272a13.948,13.948,0,1,1,5.926,27.26ZM11.941,4.648a9.513,9.513,0,1,0,11.305,7.294h0A9.486,9.486,0,0,0,11.941,4.648Z" transform="translate(0.022 0.022)" fill="#83beff"/></g><g transform="translate(221.769 35.138)"><path d="M23.152,9.209A11.749,11.749,0,1,1,9.2.274,11.744,11.744,0,0,1,23.152,9.209Z" transform="translate(0.06 -0.007)" fill="#fff"/></g><g transform="translate(219.605 32.914)"><path d="M16.865,27.531A13.942,13.942,0,0,1,.272,16.865,14.083,14.083,0,0,1,10.939.272a13.948,13.948,0,1,1,5.926,27.26ZM11.941,4.648a9.513,9.513,0,1,0,11.305,7.294h0A9.418,9.418,0,0,0,11.941,4.648Z" transform="translate(0.022 0.022)" fill="#b8daff"/></g><g transform="translate(287.111 37.754)"><path d="M23.152,9.209A11.749,11.749,0,1,1,9.2.274,11.744,11.744,0,0,1,23.152,9.209Z" transform="translate(0.06 -0.007)" fill="#fff"/></g><g transform="translate(284.947 35.53)"><path d="M16.865,27.531A13.942,13.942,0,0,1,.272,16.865,14.083,14.083,0,0,1,10.939.272a13.948,13.948,0,1,1,5.926,27.26ZM11.941,4.648a9.513,9.513,0,1,0,11.305,7.294h0A9.418,9.418,0,0,0,11.941,4.648Z" transform="translate(0.022 0.022)" fill="#cde5ff"/></g><g transform="translate(66.96 104.568)"><path d="M23.152,9.209A11.749,11.749,0,1,1,9.2.274,11.744,11.744,0,0,1,23.152,9.209Z" transform="translate(0.06 -0.007)" fill="#fff"/></g><g transform="translate(64.797 102.343)"><path d="M16.865,27.531A13.942,13.942,0,0,1,.272,16.865,14.072,14.072,0,0,1,11.03.272a13.939,13.939,0,0,1,5.835,27.26ZM11.941,4.648a9.513,9.513,0,1,0,11.305,7.294h0A9.486,9.486,0,0,0,11.941,4.648Z" transform="translate(0.022 0.022)" fill="#6bb1ff"/></g><path d="M6.6,205.4" transform="translate(-0.583 -20.963)" fill="none"/><path d="M0,211.3" transform="translate(0 -21.484)" fill="none"/></g></g><g transform="translate(1157.73 184.929)"><g transform="translate(0 0)"><path d="M127.324,85.351a35.522,35.522,0,0,0-6.747-4.923,105.887,105.887,0,0,0-10.12-5.2,92.98,92.98,0,0,0-12.49-4.467,89.845,89.845,0,0,0-13.949-2.735l.274,48.958c1.915.365,2.917.547,4.832.912,8.388,1.915,16.684,4.011,24.981,6.473a75.764,75.764,0,0,1,19.055,8.388,39.945,39.945,0,0,1,12.49,12.217c3.464,5.653,4.832,11.852,5.2,18.143.365,6.838-.638,14.4-4.011,20.787a46.354,46.354,0,0,1-13.4,15.408,70.945,70.945,0,0,1-20.7,10.3,124.509,124.509,0,0,1-25.71,5.014c.091,8.3.091,16.5.182,24.8-4.741.365-9.573.729-14.314,1.094,0-8.479,0-16.958.091-25.528-12.582-.274-25.072-1.732-36.924-5.379A105.679,105.679,0,0,1,4.7,193.844c4.832-7.932,9.664-15.772,14.5-23.7a43.509,43.509,0,0,0,8.205,6.473,84.365,84.365,0,0,0,12.764,6.564,112.438,112.438,0,0,0,16.228,5.288A96.452,96.452,0,0,0,74.9,191.2c0-16.411,0-32.821.091-49.232-1-.274-2.1-.547-3.191-.821s-2.188-.547-3.191-.821a174.012,174.012,0,0,1-23.7-7.294,58.989,58.989,0,0,1-16.5-9.664,35.947,35.947,0,0,1-9.573-13.129c-2.462-5.653-2.917-12.034-2.644-17.869.274-7.2,1.641-14.77,5.106-21.243A47.147,47.147,0,0,1,33.6,55.995,55.068,55.068,0,0,1,51.47,46.969c7.111-2.279,14.678-2.826,22.154-3.1,0-8.023,0-16.046.091-24.069,4.1.365,8.205.729,12.308,1,.091,7.932.091,15.864.182,23.887a118.164,118.164,0,0,1,29.174,7.385A134.371,134.371,0,0,1,139.45,64.656C135.256,71.4,131.335,78.422,127.324,85.351ZM45.18,89.545c-.091,5.835,2.188,12.034,7.111,15.59,6.655,4.741,14.77,7.2,22.519,9.391,0-15.59.091-31.271.091-46.862-7.658.182-15.955.821-22.246,5.653C47.824,77.146,45.362,83.528,45.18,89.545Zm74.3,78.315a17.155,17.155,0,0,0-9.573-14.952c-7.932-4.011-16.867-6.564-25.528-8.844q.137,23.385.274,46.77c9.026-.729,18.416-2.188,26.166-7.02A18.541,18.541,0,0,0,119.483,167.861Z" transform="translate(-4.7 -19.8)" fill="#16907a"/></g></g><g transform="translate(1025.489 275.099)"><g transform="translate(86.122 0)"><g transform="translate(46.107 55.219)"><path d="M2.188,66.1c.821,3.556.729,11.943.729,11.943.182,7.932-.638,16.046-.912,20.513v.456c-.091,1.094-.091,2.188-.182,3.373H60.9c0-1.094,0-2.188-.091-3.373-.091-6.655-.182-14.04-.274-19.237,13.493-3.556,28.08-8.205,27.807-11.67S77.586,13.037,74.668,10.94C72.663,9.481,60.081,4.467,53.517,2.005A44.071,44.071,0,0,0,47.682,0C46.223-.092,27.716,1.641,27.716,1.641s-2.644.912-5.379,2.188c-4.467,2.1-11.67,5.379-16.866,7.841C3.829,12.49,1.732,13.493,0,14.5c.182,6.2.547,12.946,1.094,20.149C1.915,45.4,2.1,50.326,2.188,66.1Zm58.531,6.017c.729-9.846,3.647-26.713,4.011-27.9L66.1,45.494l.456.091c.182,0,.274.091.456.182,0,0,8.935,12.49,9.026,19.237C76.127,68.2,69.107,70.474,60.719,72.115Z" transform="translate(0 0.004)" fill="#dbd8e3"/></g><g transform="translate(45.648 58.022)"><path d="M0,99.558H7.749c.182-1.094.365-2.188.547-3.373,1.276-7.385,3.009-15.772,3.92-23.978h0c1.732-15.225,4.011-30.086,5.288-38.93C20.878,10.3,25.254,0,25.254,0,23.157.638,0,11.579,0,11.579q.274,9.573,1.094,20.513s.547,17.869,1.55,34.827a40.7,40.7,0,0,1,.365,7.476c-.274,3.191-.638,6.838-1.094,10.576v.182l-.274,2.735h0c-.365,2.735-.729,5.561-1.094,8.3C.365,97.37.182,98.464,0,99.558Z" fill="#323657"/></g><g transform="translate(67.778 56.181)"><path d="M0,75.945c1.732,4.194,7.841,14.4,7.841,14.4s4.376-1.094,10.849-2.735c.456,3.647.821,7.111,1.276,10.485.182,1.094.274,2.279.365,3.373H43.4c-.274-1.094-.547-2.279-.821-3.373a98.508,98.508,0,0,1-2.553-16.228c15.408-4.376,30.542-9.391,30.36-11.761-.365-3.556-11.943-57.62-14.861-59.717C53.79,9.208,41.208,4.741,35.009,2.279,33.915,1.823,30.086.365,29.083,0,27.715,1.459,18.689,11.4,15.5,49.05c-.365,4.65.456,13.22,1.368,21.79C7.475,73.392-.274,75.215,0,75.945Zm42.121-13.4c.912-7.476,2.006-15.043,2.735-17.687A29.992,29.992,0,0,1,47.226,57.8c0,1.55-2.006,3.1-5.106,4.741Z" transform="translate(0.008)" fill="#323657"/></g><g transform="translate(73.923 38.23)"><path d="M20.684,17.693S18.314,13.225,18.952.735C19.226-2.82.718,8.94.718,8.94s.091,1.185.091,2.826V15.6a6.019,6.019,0,0,1-.091,1.276c0,.456-.091.912-.091,1.276A8.423,8.423,0,0,1-.1,20.61C-.832,22.525,13.755,22.616,20.684,17.693Z" transform="translate(0.129 -0.065)" fill="#eea987"/></g><path d="M86.673,69.9,83.3,74.459s2.006,2.644,5.561.729Z" transform="translate(-7.355 -6.128)" fill="#4488d4"/><path d="M83.211,75.182s-12.49,30.451-9.846,69.2l3.92,7.111,4.467-6.108S82.481,93.963,86.037,75Z" transform="translate(-6.445 -6.579)" fill="#4488d4"/><path d="M83,65.173l3.647,4.285s5.835-1.094,7.567-4.194S83,65.173,83,65.173Z" transform="translate(-7.329 -5.595)" fill="#eea987"/><path d="M81.77,61.2s.456,3.282,4.467,8.023L81.77,75.149,79.4,62.841Z" transform="translate(-7.011 -5.36)" fill="#c4c1cc"/><path d="M101.3,56.9s-8.479,9.573-14.4,11.943l2.735,6.838L103.128,60.82Z" transform="translate(-7.673 -4.981)" fill="#c4c1cc"/><g transform="translate(0 68.114)"><path d="M6.655,70.383s11.214-10.849,18.6-12.673c3.373-.821,7.932-5.561,12.126-11.032,1.368-1.823,2.826-3.738,4.1-5.653h0c5.2-7.567,9.3-14.77,9.3-14.77S66.281,8.114,53.882,0c0,0-5.288-.091-8.205,1.459C42.668,3.1,36.286,16.411,35.192,18.781s-12.855,24.342-13.584,24.8a29.943,29.943,0,0,1-6.838,4.832C9.026,51.511,0,60.628,0,60.628Z" transform="translate(0 0.001)" fill="#323657"/></g><path d="M65.811,163.855a6.763,6.763,0,0,0,2.279-.456s1.185-.729,2.006-1.276a5.412,5.412,0,0,1,.729-.365,10.985,10.985,0,0,0,3.738-1.823c1.459-1.094,6.291-5.653,6.291-5.653l-3.1-4.741L76.3,144.8s-11.214,1.094-12.764,2.006c-.182.091-.274.182-.456.274a15.211,15.211,0,0,0-2.279,2.553c-.182.182-2.188,2.279-2.1,3.1a2.854,2.854,0,0,0,1.459,2.279,6.129,6.129,0,0,0,1.55,3.282,4.237,4.237,0,0,0,2.1,3.009C63.988,161.393,64.535,163.581,65.811,163.855Z" transform="translate(-5.183 -12.742)" fill="#efaa88"/><path d="M84.489,6.863S64.158,1.94,68.443,27.65,77.56,55.457,89.959,50.26s11.487-21.516,12.217-29.63S90.962,7.319,84.489,6.863Z" transform="translate(-5.991 -0.529)" fill="#eea886"/><path d="M97.681,26.312c.274-2.279,4.741-3.009,5.106.365s-2.188,9.3-3.829,8.661S97.316,29.412,97.681,26.312Z" transform="translate(-8.608 -2.108)" fill="#eea886"/><path d="M100.878,33.273s-.365-8.114-3.373-8.388S94.04,27.8,94.04,27.8l-3.009.547s1-7.02-1.915-8.3S69.971,23.7,67.692,21.512s-1-16.411,3.282-18.325S87.111-2.922,95.681,3c0,0,6.747-.638,7.658,4.741S102.793,29.261,100.878,33.273Z" transform="translate(-5.879 0.048)" fill="#16202e"/><path d="M73.8,144.229l8.388,14.4s22.154-5.744,27.351-7.2L97.687,137.3S80.182,141.311,73.8,144.229Z" transform="translate(-6.516 -12.08)" fill="#323657"/><path d="M82.1,59.282h0A19.6,19.6,0,0,0,97.234,49.8a22.336,22.336,0,0,1-15.043,6.564v1.641A6.459,6.459,0,0,0,82.1,59.282Z" transform="translate(-7.249 -4.354)" fill="#a77860"/></g><path d="M151.651,110.3l5.926,54.976H79.626L73.7,110.3Z" transform="translate(-6.508 -9.696)" fill="#ededed"/><rect width="13.037" height="4.923" transform="translate(144.231 150.657)" fill="#ededed"/><rect width="211.697" height="3.373" transform="translate(0 155.489)" fill="#4b5182"/></g><g transform="translate(1036.909 257.02)"><path d="M9.117,0H97.552a9.144,9.144,0,0,1,9.117,9.117v79.5a9.144,9.144,0,0,1-9.117,9.117H9.117A9.144,9.144,0,0,1,0,88.617V9.117A9.144,9.144,0,0,1,9.117,0Z" fill="#edf0f0" opacity="0.72"/><g transform="translate(14.148 15.225)"><g transform="translate(0 4.316)"><rect width="0.365" height="51.329" fill="#4aafff"/><g transform="translate(19.5)"><rect width="0.365" height="51.329" fill="#4aafff"/></g><g transform="translate(39.001)"><rect width="0.365" height="51.329" fill="#4aafff"/></g><g transform="translate(58.41)"><rect width="0.365" height="51.329" fill="#4aafff"/></g><g transform="translate(77.91)"><rect width="0.365" height="51.329" transform="translate(0)" fill="#4aafff"/></g></g><path d="M15.8,52.3S23,56.671,30.661,48.74s15.955-14.131,23.7-7.476,12.581,8.3,20.422.821S81.99,25.4,93.568,25.4V73.082H15.8Z" transform="translate(-15.543 -17.468)" fill="#4aafff"/><rect width="7.749" height="1.823" transform="translate(0.257)" fill="#4aafff"/><rect width="4.832" height="1.823" transform="translate(19.676)" fill="#4aafff"/><rect width="5.926" height="1.823" transform="translate(39.187)" fill="#4aafff"/><rect width="9.208" height="1.823" transform="translate(58.606)" fill="#4aafff"/><rect width="3.191" height="1.823" transform="translate(78.117)" fill="#4aafff"/><rect width="38.565" height="4.467" transform="translate(0.439 62.725)" fill="#4aafff"/></g></g><g transform="translate(1274.239 370.349)"><g transform="translate(2.437 24.249)"><path d="M3.647,76.127.638.638H52.605l3.009,75.489h.638L53.243,0H0L3.009,76.127Z" fill="#869dff"/></g><g transform="translate(0 24.249)"><path d="M3.647.638H55.614L52.605,76.127h.638L56.252,0H3.009L0,76.127H.638Z" fill="#869dff"/></g><g transform="translate(0.298)"><path d="M52.605,75.762H0L3.009,0H55.614Z" fill="#869ffe"/></g><g transform="translate(4.232)"><path d="M3.009,75.762H55.614L52.605,0H0Z" fill="#edf0f0"/></g><g transform="translate(48.744 46.463)"><rect width="2.644" height="20.149" fill="#4aafff"/></g><g transform="translate(43.52 48.718)"><rect width="2.644" height="17.869" fill="#4aafff"/></g><g transform="translate(37.845 51.652)"><rect width="2.644" height="14.952" fill="#4aafff"/></g><g transform="translate(32.016 55.35)"><rect width="2.644" height="11.214" fill="#4aafff"/></g><g transform="translate(15.665 4.941)"><path d="M.547,48.047,0,47.864,5.014,33.915,15.772,31l3.92-15.317,8.388-3.647L29.9,0l.638.091L28.627,12.4,20.24,16.137l-3.92,15.408L5.47,34.371Z" fill="#4aafff"/></g><g transform="translate(30.106 34.553)"><path d="M2.919.639a1.681,1.681,0,0,1-.182,2.279,1.7,1.7,0,0,1-2.37-.274A1.614,1.614,0,0,1,.639.366h0A1.621,1.621,0,0,1,2.919.639Z" transform="translate(-0.014 -0.014)" fill="#ffb255"/></g><g transform="translate(29.788 34.144)"><path d="M3.191,3.364A2,2,0,0,1,.456,3.091,1.914,1.914,0,0,1,.729.356,1.914,1.914,0,0,1,3.464.629h0A1.979,1.979,0,0,1,3.191,3.364ZM1.094.9a1.3,1.3,0,1,0,1.823.182h0A1.3,1.3,0,0,0,1.094.9Z" transform="translate(0.001 0.101)" fill="#e3f2ff"/></g><g transform="translate(34.042 19.255)"><path d="M2.919.548a1.681,1.681,0,0,1-.182,2.279,1.618,1.618,0,0,1-2.37-.182A1.6,1.6,0,0,1,.639.365h0A1.7,1.7,0,0,1,2.919.548Z" transform="translate(-0.014 -0.006)" fill="#ffb555"/></g><g transform="translate(33.726 18.854)"><path d="M3.191,3.364A2,2,0,0,1,.456,3.091,1.914,1.914,0,0,1,.729.356,1.914,1.914,0,0,1,3.464.629h0A1.979,1.979,0,0,1,3.191,3.364ZM1.094.9a1.3,1.3,0,1,0,1.823.182h0A1.3,1.3,0,0,0,1.094.9Z" transform="translate(0.001 0.101)" fill="#e3f2ff"/></g><g transform="translate(42.259 15.476)"><path d="M2.919.639a1.681,1.681,0,0,1-.182,2.279,1.7,1.7,0,0,1-2.37-.274A1.614,1.614,0,0,1,.639.366h0A1.621,1.621,0,0,1,2.919.639Z" transform="translate(-0.014 -0.014)" fill="#ffb555"/></g><g transform="translate(41.941 15.067)"><path d="M3.191,3.364A2,2,0,0,1,.456,3.091,1.914,1.914,0,0,1,.729.356,1.914,1.914,0,0,1,3.464.629h0A1.979,1.979,0,0,1,3.191,3.364ZM1.094.9a1.3,1.3,0,1,0,1.823.182h0A1.3,1.3,0,0,0,1.094.9Z" transform="translate(0.001 0.101)" fill="#e3f2ff"/></g><g transform="translate(19.335 37.555)"><path d="M2.919.639a1.681,1.681,0,0,1-.182,2.279,1.7,1.7,0,0,1-2.37-.274A1.614,1.614,0,0,1,.639.366h0A1.621,1.621,0,0,1,2.919.639Z" transform="translate(-0.014 -0.014)" fill="#ffb455"/></g><g transform="translate(18.926 37.147)"><path d="M3.091,3.364A2,2,0,0,1,.356,3.091,1.914,1.914,0,0,1,.629.356,1.914,1.914,0,0,1,3.364.629h0A1.9,1.9,0,0,1,3.091,3.364ZM1.085.9a1.3,1.3,0,1,0,1.823.182h0A1.3,1.3,0,0,0,1.085.9Z" transform="translate(0.101 0.101)" fill="#e3f2ff"/></g><g transform="translate(11.199 19.544)"><path d="M1.641,0H14.587a1.634,1.634,0,0,1,1.641,1.641h0a1.634,1.634,0,0,1-1.641,1.641H1.641A1.53,1.53,0,0,1,0,1.641H0A1.634,1.634,0,0,1,1.641,0Z" fill="#4aafff"/></g><g transform="translate(11.199 13.66)"><path d="M1.641,0H14.587a1.634,1.634,0,0,1,1.641,1.641h0a1.634,1.634,0,0,1-1.641,1.641H1.641A1.53,1.53,0,0,1,0,1.641H0A1.634,1.634,0,0,1,1.641,0Z" fill="#4aafff"/></g></g><g transform="translate(1229.043 330.58)"><g transform="translate(12.581 0)"><path d="M11.487,1s4.467,2.188,3.373,8.114-1.55,6.747-.365,9.026,2.644,12.217,1.55,14.04S2.279,23.977.547,15.5,1.641,3.282,2.644,1.823,7.567-1,11.487,1Z" transform="translate(0.003 0.005)" fill="#e8734d"/></g><g transform="translate(21.277 126.322)"><path d="M1,12.31H2V7.569A10.65,10.65,0,0,1,5.193,10.76c1.276,1.823,2.917,1.641,5.561,1.55s2.462-1.185,2.279-2.644S10.116,7.751,9.3,7.478,6.56,3.831,5.922,3.011A16.056,16.056,0,0,1,4.646.914s-.456-2.006-2.917,0S0,6.657.269,7.022A42.861,42.861,0,0,1,1,12.31Z" transform="translate(0.046 -0.022)" fill="#163342"/></g><g transform="translate(22.516 126.675)"><path d="M4.923,7.113c.912.547,3.191,0,3.191,0C7.476,6.2,3.464.549,3.464.549,1-.91,0,1.1,0,1.1,1,1.369,4.011,6.475,4.923,7.113Z" transform="translate(0 -0.017)" fill="#eea886"/></g><g transform="translate(53.302 43.128)"><path d="M.091,2.639s1.641.274,2.188-.456A5.431,5.431,0,0,1,4.194.907C4.65.724,5.744-.461,6.017.086s-1.732,2.006-2.1,2.37,2.006.547,2.37.912S6.2,7.653,4.559,7.38c-1.55-.365-3.1-1.732-3.373-1.732A5.336,5.336,0,0,1,0,5.465Z" transform="translate(0 0.057)" fill="#eea886"/></g><g transform="translate(57.952 46.427)"><path d="M1.276,0S6.108,1.276,6.382,1.641s.182.638-.274.547S1.368,1,1.368,1s5.47,2.462,5.744,2.644c.182.182,0,.638-.182.638s-5.835-2.1-5.835-2.1S6.2,4.467,6.382,4.741a.438.438,0,0,1-.182.547.171.171,0,0,1-.274,0C5.47,5.2.638,3.282.638,3.282S4.285,5.2,4.285,5.47c0,.182-.091.638-1,.091A31.6,31.6,0,0,0,0,4.1Z" fill="#eea886"/></g><g transform="translate(8.964 130.163)"><path d="M.271,8.751H.909V5.286A7.948,7.948,0,0,1,2.55,8.113C3.1,9.754,4.829,10.3,7.656,10.21s2.826-1.185,2.553-2.826S7.565,4.922,7.565,4.922A37.287,37.287,0,0,1,3.918.09,3.631,3.631,0,0,0,.909.728C-.367,1.822,0,4.192.089,4.831S.271,8.751.271,8.751Z" transform="translate(0.03 0.016)" fill="#163342"/></g><g transform="translate(5.462 54.285)"><path d="M5.647,1.368a25.652,25.652,0,0,0-4.194,9.391C.541,15.864,2,32.822,1.909,35.375S-.462,44.127-.006,48.868,2.273,77.04,2.273,77.04l5.014-1s-.274-23.978,0-25.892c.274-2.006.912-9.208,1-10.029s7.385-22.246,7.385-25.892S13.579-4.558,5.647,1.368Z" transform="translate(0.066 -0.008)" fill="#55aa93"/></g><g transform="translate(16.354 56.272)"><path d="M11.3,1.1s5.379,20.6,6.017,23.431,1.55,5.2,1.55,6.382a39.024,39.024,0,0,1-1,7.294L11.028,71.023H4.464S8.111,51.33,8.2,47.5s3.1-9.3,2.462-10.94S1.273,16.138,1.273,16.138-5.382-4.922,11.3,1.1Z" transform="translate(0.038 -0.014)" fill="#55aa93"/></g><g transform="translate(9.945 130.272)"><path d="M6.655,4.832,3.009,0,0,.638A12.119,12.119,0,0,0,2.279,4.376C4.011,6.291,6.655,4.832,6.655,4.832Z" fill="#eea886"/></g><g transform="translate(23.525 22.303)"><path d="M2.008,0a6.793,6.793,0,0,1,3.92,2.006A28.923,28.923,0,0,1,9.667,7.658c.456,1,6.655,9.846,6.929,10.029s3.464,1.276,5.47,1.915c3.191,1.094,9.573,3.373,9.573,3.373l-1.276,4.011s-11.943-3.92-14.952-4.65C11.763,21.425,3.285,10.576,3.285,10.576S-3.1,3.282,2.008,0Z" transform="translate(-0.029)" fill="#e1deff"/></g><g transform="translate(6.116 20.578)"><path d="M15.5.181a29.206,29.206,0,0,0,3.92,1.55c1,.182,4.923,5.288,5.561,7.111s0,4.65-1.368,7.841-.182,4.285-.821,7.567-.456,15.408-.274,17.14S3.738,45.949,0,42.666c0,0,2.553-10.94,5.47-14.04.638-.638.547-5.2.091-6.291S.274,12.763.274,12.763-.091,4.284,2.1,2.552C4.011,1.093,9.117.546,10.029.272A15.717,15.717,0,0,1,15.5.181Z" transform="translate(0 0.014)" fill="#7ed1bb"/></g><g transform="translate(16.091 13.446)"><path d="M6.838,3.918s-.091.821-.182,1.823c0,.456-.091.912-.091,1.368-.091,1.368-.182,2.553-.182,3.829,0,0-3.009,3.009-6.382-3.464A9.064,9.064,0,0,0,.365,1.092C-.729-2.555,6.838,3.918,6.838,3.918Z" transform="translate(0 0.022)" fill="#eea886"/></g><g transform="translate(29.918 30.725)"><path d="M1.459,7.749S2.188,2.917,1.368,0A17.987,17.987,0,0,1,0,6.108Z" fill="#183c59"/></g><g transform="translate(13.788 20.847)"><path d="M0,.547S2.1,6.655,7.749,6.2s2.644-5.106,2.644-5.106A11.346,11.346,0,0,0,8.57.182C8.205.091,2.37,0,2.37,0Z" fill="#eea886"/></g><g transform="translate(24.193 21.883)"><path d="M0,0A57.3,57.3,0,0,1,3.009,16.593c0,8.388.274,21.972,1.276,26.257s3.92,17.6,3.92,17.6l2.279-1.185S4.923,38.018,4.559,36.468s.274-17.687.729-19.055,2.1-7.385,1.823-9.026c-.365-2.1-2.279-5.2-5.47-7.932Z" fill="#e1deff"/></g><g transform="translate(2.396 21.127)"><path d="M12.49,0a84.266,84.266,0,0,1,2.735,13.493c.912,7.567-2.826,42.668-5.379,50.6L0,62.452s2.1-24.8,5.014-29.266,3.829-8.57.729-17.961S7.111,1.185,7.111,1.185,11.67.091,12.49,0Z" fill="#e1deff"/></g><g transform="translate(0.28 38.163)"><path d="M25.254,8.023l-11.943,20.7L0,21.06,11.487,0Z" fill="#616161"/></g><g transform="translate(1.664 39.77)"><path d="M22.428,7.111,11.852,25.528,0,18.69,10.211,0Z" fill="#e0cec7"/></g><g transform="translate(15.228 41.154)"><path d="M4.923,4.011l.821-1.276L.912,0,0,1.185Z" fill="#616161"/></g><g transform="translate(14.133 53.471)"><path d="M5.47,6.473a2.524,2.524,0,0,1-.821-.091,5.071,5.071,0,0,0-.729-.365c-.091,0-.182-.091-.274-.091a4.3,4.3,0,0,1-1.368-.547C1.55,4.467.729,3.647,0,2.735L.912,1.368,1.55,0A37.34,37.34,0,0,1,6.017.547c.091,0,.091.091.182.091l.821.821c.091.091.821.729.729,1.094a.957.957,0,0,1-.456.821,2.826,2.826,0,0,1-.547,1.185,1.121,1.121,0,0,1-.638,1S5.926,6.382,5.47,6.473Z" fill="#eea886"/></g><g transform="translate(0 22.162)"><path d="M11.581.089S7.934-.914,5.837,3.1a17.508,17.508,0,0,0-2.37,7.658c-.274,1.823-1.459,6.929-1.55,7.385S-.909,24.888.367,27.076s13.858,8.57,13.767,9.117,2.188-4.832,2.188-4.832-5.106-2.826-5.926-3.738C9.028,26.164,6.2,24.705,6.749,22.882c.729-2.1,2.735-9.026,3.282-10.029S14.59,1.457,11.581.089Z" transform="translate(-0.028 0.022)" fill="#e1deff"/></g><g transform="translate(14.888 1.438)"><path d="M8.572.181S15.046,2.187,11.49,13.4-.818,12.124.094,5.287,8.572.181,8.572.181Z" transform="translate(-0.027 0.015)" fill="#eea987"/></g><g transform="translate(14.41 0.482)"><path d="M12.678,7.56a14.168,14.168,0,0,1-8.57,3.556s-2.1,2.462-2.188,3.373c0,0-4.832-8.205,1.094-13.129S14.866,5.554,12.678,7.56Z" transform="translate(-0.063 0.08)" fill="#e8734d"/></g><g transform="translate(16.306 9.714)"><path d="M2.286,2.281c0-.821-.547-2.644-1.732-2.188S.645,4.378,1.465,4.1C1.374,4.1,2.377,4.2,2.286,2.281Z" transform="translate(-0.072 -0.021)" fill="#eea987"/></g><g transform="translate(17.973 16.235)"><path d="M4.932,3.009c0,.456-.091.912-.091,1.368,0,0-2.826-.182-4.741-4.376C.1.182,2.2,3.282,4.932,3.009Z" transform="translate(-0.1)" fill="#a77860"/></g><g transform="translate(8.989 19.293)"><g transform="translate(0 0.311)"><path d="M1.688,13.128l.729-.091a27.318,27.318,0,0,1,.365-7.2A5.834,5.834,0,0,1,6.337,1.458a13.21,13.21,0,0,1,9.482.274c2.006,1.094,2.735,2.735,2.735,5.561h.729c0-3.1-.912-4.923-3.1-6.2A14.022,14.022,0,0,0,6.064.82,6.694,6.694,0,0,0,2.052,5.743,25.151,25.151,0,0,0,1.688,13.128Z" transform="translate(-0.138 0.007)" fill="#2f4859"/><path d="M19.823,9.4c-2.1.456-3.282,2.279-3.829,5.744A3.164,3.164,0,0,0,16.54,17.7a2.942,2.942,0,0,0,1.915.729h.274l-.091-.547h0a2.3,2.3,0,0,1-1.55-.547,2.507,2.507,0,0,1-.456-2.1C17.087,11.953,18.09,10.4,20,9.947Z" transform="translate(-1.406 -0.823)" fill="#474c5b"/><path d="M20.8,9.847c1.915.456,2.917,2.006,3.373,5.288a2.441,2.441,0,0,1-.456,2.1,2.041,2.041,0,0,1-1.55.547h0l-.091.547h.091a2.769,2.769,0,0,0,1.915-.729,2.861,2.861,0,0,0,.547-2.553C24.173,11.579,22.988,9.756,20.8,9.3Z" transform="translate(-1.837 -0.815)" fill="#474c5b"/><path d="M24.288,14.32h-.821c-.547-2.735-1.459-4.1-3.282-4.467H20c-1.732.365-2.735,1.732-3.282,4.467H15.9c.547-3.009,1.641-4.559,3.464-5.106V7.3h1.276V9.215C22.647,9.67,23.741,11.311,24.288,14.32Z" transform="translate(-1.404 -0.638)" fill="#a7aab8"/><path d="M18.847,18.4a.547.547,0,1,1-.547.547h0a.588.588,0,0,1,.547-.547Z" transform="translate(-1.616 -1.618)" fill="#2f4859"/><path d="M22.047,18.4a.547.547,0,1,1-.547.547h0A.588.588,0,0,1,22.047,18.4Z" transform="translate(-1.898 -1.618)" fill="#2f4859"/><path d="M1.915,12.7a1.926,1.926,0,0,1,1.915,1.915,1.87,1.87,0,0,1-1.915,1.915A1.926,1.926,0,0,1,0,14.615H0A1.87,1.87,0,0,1,1.915,12.7Z" transform="translate(0 -1.115)" fill="#fff"/><path d="M1.984,13.4a1.185,1.185,0,1,1,0,2.37A1.207,1.207,0,0,1,.8,14.585h0A1.1,1.1,0,0,1,1.984,13.4Z" transform="translate(-0.07 -1.177)" fill="#4d5c7d"/><path d="M2.038,14.1a.638.638,0,1,1,0,1.276.638.638,0,1,1,0-1.276Z" transform="translate(-0.124 -1.238)" fill="#2f4859"/></g><path d="M14.355.638V1.823L7.7,2.1,8.156.547A13.729,13.729,0,0,1,11.438,0c.091,0,2.917.638,2.917.638Z" transform="translate(-0.68)" fill="#eea886"/></g></g><g transform="translate(1312.809 333.431)"><g transform="translate(0 16.314)"><path d="M26.166,18.963l-13.037,7.2L0,5.47,15.864,0Z" fill="#292c47"/></g><g transform="translate(0.869 16.923)"><path d="M24.434,17.687,12.217,24.434,0,5.106,14.861,0Z" fill="#fff"/></g><g transform="translate(14.293 26.786)"><path d="M15.5,4.288s-2.279-1.094-3.282-1.641S8.658,1.279,8.475,1.1.817.458.361.094s-.912.912,1,1.368S5.923,2.92,6.105,3.649,4.19,4.561,3.917,5.108s.091.456.365.638,2.553-1.094,3.464-.729,2.462-.091,3.191.091,4.376,1.459,4.376,1.459Z" transform="translate(0.039 -0.029)" fill="#eea886"/></g><g transform="translate(2.506 26.737)"><path d="M10.032,13.033S8.117,11.3,7.205,10.572,4.47,7.836,4.288,7.654.732.725.185.452.641-.734,1.826.907s3.191,3.738,3.92,3.647.091-2.188.638-2.644.456-.091.729.091-.091,2.826.547,3.556.821,2.37,1.368,3.009,3.1,3.556,3.1,3.556Z" transform="translate(-0.032 0.048)" fill="#eea886"/></g><g transform="translate(53.582 131.317)"><path d="M0,.365S.456,3.191.456,3.647s4.559-.274,4.559-.274L5.379,0S.547,0,0,.365Z" fill="#424773"/></g><g transform="translate(46.082 134.425)"><path d="M7.837.182A10.384,10.384,0,0,1,5.011,2.644C3.643,3.464,1.455,3.738.635,4.467,0,5.014-1.553,7.476,4.282,7.385s8.57.365,9.208-.547S12.578,0,12.578,0A11.82,11.82,0,0,1,7.837.182Z" transform="translate(0.038 0)" fill="#292c47"/></g><g transform="translate(21.04 131.317)"><path d="M0,.365S.456,3.191.456,3.647s4.559-.274,4.559-.274L5.379,0S.547,0,0,.365Z" fill="#424773"/></g><g transform="translate(10.963 134.425)"><path d="M10.581.182A10.384,10.384,0,0,1,7.755,2.644C6.388,3.373,1.282,4.011.462,4.832c-.638.547-1.55,2.826,6.564,2.644,5.653-.182,8.479.274,9.117-.638S15.231,0,15.231,0,13.955.547,10.581.182Z" transform="translate(-0.064)" fill="#292c47"/></g><g transform="translate(39.399 58.044)"><path d="M10.393,0s4.285,6.747,3.92,12.946S15.863,25.8,16.5,32.183c.729,7.111,3.647,24.069,3.738,27.9s-.456,16.046-.456,16.046l-5.835.091s-4.923-29.539-6.2-32.548S.182,19.055,0,16.684,10.393,0,10.393,0Z" transform="translate(0.003)" fill="#292c47"/></g><g transform="translate(20.249 56.862)"><path d="M7.111,2.1S3.92,18.871,3.464,22.609s-.729,18.143-.912,20.513S1.094,73.847,0,77.311H7.476s5.744-20.6,5.744-30.36S17.687,25.8,20.513,19.327,30,12.763,31.727.819C31.727.819,9.482-1.733,7.111,2.1Z" transform="translate(0 0.014)" fill="#292c47"/></g><g transform="translate(32.489 0.55)"><path d="M10.21.55s-5.744-2.1-8.388,2.188-2.37,13.129.456,14.131,7.2.547,8.661-2.188,2.826-6.655,2.735-9.3A5.667,5.667,0,0,0,10.21.55Z" transform="translate(0.01 -0.037)" fill="#eea886"/></g><g transform="translate(35.27 12.198)"><path d="M.181,5.471A4.862,4.862,0,0,1,0,7.75c-.365.729,7.385.821,7.385.821A58.293,58.293,0,0,1,9.207.913C10.483-2.643.181,5.471.181,5.471Z" transform="translate(0.014 -0.012)" fill="#eea886"/></g><g transform="translate(32.769 0)"><path d="M11.854,13.234s-.547.912-2.735.547S4.2,10.5,3.284,10.225,2.373,9.4,2.373,9.4l-.547.821-1,.091S1.735,7.672.367,6.669,1.735-1.809,8.846.652c0,0,5.379,1.459,5.2,4.559S13.04,11.684,11.854,13.234Z" transform="translate(-0.026 -0.158)" fill="#3a3f47"/></g><g transform="translate(34.834 17.589)"><path d="M0,2.086S0,.627.729.445,8.023-.375,8.844-.011V1.813C8.752,1.813,7.2,2.724,0,2.086Z" transform="translate(0 0.121)" fill="#e2d2ca"/></g><g transform="translate(35.026 6.903)"><path d="M.18,1.093C.271.638,1.639-.912,2.094.729S1.365,4.467.636,4.284-.185,2.461.18,1.093Z" transform="translate(0.029 0.007)" fill="#eea886"/></g><g transform="translate(8.523 37.037)"><path d="M0,0Z" fill="#323657"/></g><g transform="translate(8.561 19.483)"><path d="M46.041,54.7a66.71,66.71,0,0,1-9.482,1.732c-6.017.638-20.969-.274-21.06-.912s3.191-26.348,3.009-27.716-.274-6.017-.274-6.017a33.273,33.273,0,0,1-3.009,9.391c-.547,1-2.462,4.285-3.464,3.556C7.385,31.18.456,17.687,0,17.6c.365-.182,3.282-1.55,3.738-1.641.365-.091,3.556,3.282,5.561,5.47a17.143,17.143,0,0,1,1.459,1.641c.547-1.276,2.644-9.3,3.282-12.034,1.459-6.291,1.185-6.564,1.185-6.564C19.6,3.1,26.257.456,26.257.456L35.009,0s8.023,1.732,11.214,3.191c.274.091.274,7.2,1.094,9.026l-2.644,5.561S43.124,28.81,42.85,33.642C42.759,35.921,46.041,54.7,46.041,54.7Z" fill="#4b5182"/></g><g transform="translate(46.593 22.689)"><path d="M9.758,18.143a3.742,3.742,0,0,1-1.915,1.641,2.39,2.39,0,0,1-1.368.182l-.365-.091h0L.094,18.781S-1.182,3.647,8.3,0C8.573.091,11.855,11.4,9.758,18.143Z" transform="translate(-0.037 0)" fill="#4b5182"/></g><g transform="translate(52.636 34.848)"><path d="M1.732,7.658h0a2.39,2.39,0,0,1-1.368.182L0,7.749H0L.638,0Z" fill="#24263d"/></g><g transform="translate(17.814 40.823)"><path d="M1.459,1.641l-.729,3.1A27.038,27.038,0,0,1,0,0,17.143,17.143,0,0,1,1.459,1.641Z" fill="#24263d"/></g><g transform="translate(44.332 1.527)"><path d="M0,0s7.476-.912.091,11.67Z" transform="translate(0 0.016)" fill="#3a3f47"/></g><g transform="translate(5.272 17.329)"><path d="M.729,3.373,0,2.1,6.017,0l.729,1.276Z" fill="#292c47"/></g></g></g></svg>