<svg version="1.1" id="Layer_1" xmlns="http://www.w3.org/2000/svg" xmlns:xlink="http://www.w3.org/1999/xlink" x="0px" y="0px"
	 width="100%" viewBox="0 0 400 400" enable-background="new 0 0 400 400" xml:space="preserve">
<path fill="#000000" opacity="1.000000" stroke="none" 
	d="
M188.000000,401.000000 
	C125.352760,401.000000 63.205513,401.000000 1.029136,401.000000 
	C1.029136,267.727753 1.029136,134.455505 1.029136,1.091625 
	C134.230530,1.091625 267.461151,1.091625 400.845886,1.091625 
	C400.845886,134.333191 400.845886,267.666565 400.845886,401.000000 
	C330.122253,401.000000 259.311127,401.000000 188.000000,401.000000 
M177.998474,187.999146 
	C177.998474,187.999146 177.968307,187.923752 177.348160,188.126541 
	C177.269058,188.535736 177.189941,188.944916 176.999542,189.465866 
	C176.999542,189.465866 177.071136,189.606384 176.316223,190.150375 
	C176.208221,190.632523 176.005936,191.114624 176.005707,191.596817 
	C175.991882,219.422638 175.984726,247.248474 176.037033,275.074188 
	C176.038910,276.073883 176.643250,277.072449 176.999649,278.001099 
	C176.999649,278.001099 176.928940,278.032837 177.332657,278.818756 
	C189.887100,278.827087 202.441544,278.835388 215.846436,278.634277 
	C215.898285,249.654099 216.025391,220.673431 215.832779,191.694885 
	C215.819931,189.761703 213.381866,187.844620 211.728210,185.174026 
	C210.222641,184.778976 208.722885,184.070831 207.210510,184.042755 
	C200.436325,183.917068 193.657593,183.922958 186.882751,184.027527 
	C185.225647,184.053101 183.577072,184.630615 182.000977,184.996750 
	C182.000977,184.996750 181.969620,184.914474 181.304932,184.991821 
	C180.512329,185.646255 179.719742,186.300674 178.996689,187.000748 
	C178.996689,187.000748 178.972733,186.922119 178.440369,187.053177 
	C178.267456,187.359650 178.094559,187.666138 177.998474,187.999146 
M231.409286,137.025772 
	C231.248840,137.334015 231.088409,137.642242 230.999908,137.999634 
	C230.999908,137.999634 230.938278,137.937668 230.235519,138.156860 
	C229.811890,139.726120 229.388245,141.295364 228.202087,143.318344 
	C228.135422,171.555283 228.062332,199.792206 228.040833,228.029175 
	C228.040329,228.703140 228.616714,229.377548 228.995712,230.980133 
	C228.998215,243.393875 228.975464,255.807693 229.020126,268.221283 
	C229.031998,271.523071 226.778198,275.069305 229.999130,278.000702 
	C229.999130,278.000702 229.931702,278.006439 230.326370,278.798553 
	C242.249619,278.866333 254.172836,278.950043 266.096130,278.959076 
	C266.755829,278.959564 267.415985,278.341095 268.004486,278.007965 
	C268.004486,278.007965 268.004028,278.079437 268.787384,277.668365 
	C268.851837,277.343109 268.972687,277.017914 268.972778,276.692627 
	C268.987122,232.510498 269.001434,188.328339 268.950317,144.146286 
	C268.948975,142.992828 268.229126,141.840195 267.575287,140.080231 
	C265.310425,138.418411 263.045593,136.756607 260.671143,134.208496 
	C254.608566,134.137985 248.544464,133.962570 242.484161,134.049973 
	C240.146576,134.083694 237.817612,134.714417 235.490723,135.022522 
	C235.490723,135.022522 235.539734,135.033630 234.771957,134.966980 
	C233.828003,135.621979 232.884064,136.276962 231.999725,137.000092 
	C231.999725,137.000092 231.946594,136.927628 231.409286,137.025772 
M162.800186,277.684998 
	C162.867783,266.199707 162.958328,254.714401 162.954285,243.229141 
	C162.953995,242.414383 162.258163,241.599854 161.958160,240.104187 
	C157.381638,232.563248 149.981201,234.067535 142.094406,234.050186 
	C135.485428,234.151108 128.219925,232.228271 123.236923,240.254272 
	C123.165428,252.362091 123.082367,264.469879 123.063583,276.577789 
	C123.062813,277.075592 123.665466,277.574310 123.994431,278.006042 
	C123.994431,278.006042 123.928146,278.015472 124.332161,278.801819 
	C136.248779,278.865906 148.165405,278.946075 160.082047,278.951355 
	C160.748077,278.951630 161.414368,278.334015 162.004913,278.003357 
	C162.004913,278.003357 162.005600,278.078979 162.800186,277.684998 
M277.070190,288.990387 
	C224.524017,288.993286 171.977844,288.999329 119.431671,288.982971 
	C117.959915,288.982513 116.488235,288.742157 114.691818,287.966095 
	C113.798042,285.360474 112.904266,282.754822 112.787689,279.711365 
	C112.858139,278.054871 112.989815,276.398407 112.990143,274.741913 
	C113.000099,224.494781 112.997131,174.247665 113.869949,124.022102 
	C115.535034,124.027672 117.210487,124.154808 118.863060,124.013794 
	C122.430252,123.709404 125.687943,119.244835 124.149788,116.431519 
	C118.951935,106.924561 113.650772,97.468262 108.119072,88.152954 
	C106.296440,85.083694 103.026321,85.187866 101.387520,88.029198 
	C96.084412,97.223640 90.753174,106.408882 85.812958,115.797714 
	C85.108902,117.135750 86.056549,119.849915 87.021286,121.458427 
	C89.371056,125.376190 93.479286,123.770180 96.994026,124.935951 
	C96.996292,180.001007 96.989876,235.066071 97.042328,290.131073 
	C97.043915,291.800323 97.659851,293.468964 97.963295,295.883911 
	C99.915375,301.533478 102.734940,303.634430 109.292786,304.792755 
	C111.116074,304.861725 112.939316,304.989594 114.762657,304.991058 
	C169.175751,305.034882 223.588852,305.066193 277.954865,305.960327 
	C277.951141,306.626526 278.023041,307.303345 277.931244,307.957153 
	C277.411957,311.654816 278.738159,314.184998 282.080170,316.104675 
	C285.370361,317.994598 287.177307,315.894043 289.495911,314.381104 
	C292.238251,312.591736 295.188293,311.119202 298.058350,309.527374 
	C303.218811,306.665253 308.509369,304.011078 313.491913,300.867920 
	C315.520660,299.588135 319.048676,297.436859 314.549774,294.786926 
	C305.086548,289.212952 295.618408,283.629028 285.934448,278.457092 
	C282.044373,276.379517 278.800171,278.927734 278.473755,283.524536 
	C278.346527,285.316681 278.162048,287.104767 277.070190,288.990387 
z"/>
<path fill="#8E8F92" opacity="1.000000" stroke="none" 
	d="
M108.867897,304.009338 
	C102.734940,303.634430 99.915375,301.533478 98.021072,295.035095 
	C98.054871,237.437454 98.030891,180.688599 98.309464,123.662483 
	C103.069977,123.539673 107.527931,123.694130 111.911980,124.322762 
	C111.831665,164.095795 111.809677,203.394669 111.827904,242.693527 
	C111.833702,255.178772 111.946602,267.663971 112.010483,280.149200 
	C112.904266,282.754822 113.798042,285.360474 114.957031,288.729492 
	C116.516029,289.694885 117.809799,290.073395 119.103592,290.073486 
	C172.215790,290.077393 225.327988,290.047272 278.638336,290.373718 
	C278.684265,295.143219 278.532074,299.560455 277.885620,303.932251 
	C244.150543,303.877167 210.909653,303.846558 177.668793,303.865143 
	C154.735153,303.877991 131.801529,303.958862 108.867897,304.009338 
z"/>
<path fill="#10DD9D" opacity="1.000000" stroke="none" 
	d="
M235.539734,135.033630 
	C235.539734,135.033630 235.490723,135.022522 235.957016,135.246063 
	C240.616196,135.485107 244.809097,135.500626 249.000290,135.952423 
	C248.975433,183.479034 248.952255,230.569336 248.475327,277.737396 
	C241.991623,277.878906 235.961655,277.942657 229.931702,278.006409 
	C229.931702,278.006439 229.999130,278.000702 230.075882,277.566589 
	C230.414505,230.734207 230.676392,184.335938 230.938278,137.937668 
	C230.938278,137.937668 230.999908,137.999634 231.318359,138.070312 
	C231.740067,137.736542 231.843338,137.332092 231.946594,136.927628 
	C231.946594,136.927628 231.999725,137.000092 232.318542,137.170074 
	C233.604828,136.571228 234.572281,135.802429 235.539734,135.033630 
z"/>
<path fill="#06B393" opacity="1.000000" stroke="none" 
	d="
M248.929077,277.659607 
	C248.952255,230.569336 248.975433,183.479034 249.452789,135.875443 
	C253.531570,135.273041 257.156158,135.183914 260.780731,135.094788 
	C263.045593,136.756607 265.310425,138.418411 267.433014,140.653748 
	C267.480865,143.196350 267.825836,145.164688 267.835144,147.134613 
	C267.884003,157.465240 267.830292,167.796280 267.844452,178.127136 
	C267.890045,211.444565 267.949738,244.762009 268.004028,278.079437 
	C268.004028,278.079437 268.004486,278.007965 267.576294,277.906403 
	C261.075073,277.756439 255.002075,277.708038 248.929077,277.659607 
z"/>
<path fill="#F4CB53" opacity="1.000000" stroke="none" 
	d="
M177.071136,189.606384 
	C177.071136,189.606384 176.999542,189.465866 177.323700,189.253906 
	C177.754684,188.669220 177.861496,188.296478 177.968307,187.923752 
	C177.968307,187.923752 177.998474,187.999146 178.265839,187.981537 
	C178.679703,187.616653 178.826218,187.269394 178.972733,186.922119 
	C178.972733,186.922119 178.996689,187.000748 179.322266,187.067505 
	C180.421768,186.394318 181.195694,185.654388 181.969620,184.914474 
	C181.969620,184.914474 182.000977,184.996750 182.422729,185.085266 
	C187.254272,185.218155 191.664093,185.262512 196.051880,185.751419 
	C196.011353,214.992111 195.989090,243.788223 195.982056,272.584351 
	C195.981537,274.703125 195.492935,277.246368 199.490448,276.921448 
	C203.619141,276.948578 207.290741,276.946991 210.985779,277.167786 
	C211.009216,277.390106 211.034119,277.836578 210.568939,277.913513 
	C199.045502,278.004608 187.987213,278.018707 176.928940,278.032837 
	C176.928940,278.032837 176.999649,278.001099 177.053162,277.567383 
	C177.094833,247.957901 177.082977,218.782150 177.071136,189.606384 
z"/>
<path fill="#616266" opacity="1.000000" stroke="none" 
	d="
M111.985886,123.848587 
	C107.527931,123.694130 103.069977,123.539673 98.051018,123.664917 
	C97.318657,123.962608 97.147293,123.980606 96.975922,123.998611 
	C93.479286,123.770180 89.371056,125.376190 87.021286,121.458427 
	C86.056549,119.849915 85.108902,117.135750 85.812958,115.797714 
	C90.753174,106.408882 96.084412,97.223640 101.387520,88.029198 
	C103.026321,85.187866 106.296440,85.083694 108.119072,88.152954 
	C113.650772,97.468262 118.951935,106.924561 124.149788,116.431519 
	C125.687943,119.244835 122.430252,123.709404 118.863060,124.013794 
	C117.210487,124.154808 115.535034,124.027672 113.178360,123.987457 
	C112.319809,123.918068 112.152847,123.883324 111.985886,123.848587 
z"/>
<path fill="#616266" opacity="1.000000" stroke="none" 
	d="
M278.379852,303.977722 
	C278.532074,299.560455 278.684265,295.143219 278.546997,290.085083 
	C278.172882,289.261017 278.088287,289.077850 278.003662,288.894684 
	C278.162048,287.104767 278.346527,285.316681 278.473755,283.524536 
	C278.800171,278.927734 282.044373,276.379517 285.934448,278.457092 
	C295.618408,283.629028 305.086548,289.212952 314.549774,294.786926 
	C319.048676,297.436859 315.520660,299.588135 313.491913,300.867920 
	C308.509369,304.011078 303.218811,306.665253 298.058350,309.527374 
	C295.188293,311.119202 292.238251,312.591736 289.495911,314.381104 
	C287.177307,315.894043 285.370361,317.994598 282.080170,316.104675 
	C278.738159,314.184998 277.411957,311.654816 277.931244,307.957153 
	C278.023041,307.303345 277.951141,306.626526 278.092743,305.256165 
	C278.280365,304.360565 278.330109,304.169159 278.379852,303.977722 
z"/>
<path fill="#F7564E" opacity="1.000000" stroke="none" 
	d="
M124.066498,239.898544 
	C128.219925,232.228271 135.485428,234.151108 142.546890,234.575500 
	C142.980713,249.304764 142.962067,263.508728 142.488251,277.785889 
	C135.998108,277.911255 129.963120,277.963379 123.928146,278.015472 
	C123.928146,278.015472 123.994431,278.006042 124.043999,277.568542 
	C124.084541,264.720184 124.075516,252.309372 124.066498,239.898544 
z"/>
<path fill="#CE3A33" opacity="1.000000" stroke="none" 
	d="
M142.943405,277.712677 
	C142.962067,263.508728 142.980713,249.304764 143.005875,234.645050 
	C149.981201,234.067535 157.381638,232.563248 161.887039,240.929443 
	C161.879135,253.862778 161.942368,265.970886 162.005600,278.078979 
	C162.005600,278.078979 162.004913,278.003357 161.572632,277.942047 
	C155.074707,277.824707 149.009048,277.768707 142.943405,277.712677 
z"/>
<path fill="#F8F9FB" opacity="1.000000" stroke="none" 
	d="
M96.984970,124.467285 
	C97.147293,123.980606 97.318657,123.962608 97.748459,123.942184 
	C98.030891,180.688599 98.054871,237.437454 98.034111,294.662109 
	C97.659851,293.468964 97.043915,291.800323 97.042328,290.131073 
	C96.989876,235.066071 96.996292,180.001007 96.984970,124.467285 
z"/>
<path fill="#FBFCFE" opacity="1.000000" stroke="none" 
	d="
M277.885620,303.932251 
	C278.330109,304.169159 278.280365,304.360565 278.116272,304.825714 
	C223.588852,305.066193 169.175751,305.034882 114.762657,304.991058 
	C112.939316,304.989594 111.116074,304.861725 109.080338,304.401062 
	C131.801529,303.958862 154.735153,303.877991 177.668793,303.865143 
	C210.909653,303.846558 244.150543,303.877167 277.885620,303.932251 
z"/>
<path fill="#FBFCFE" opacity="1.000000" stroke="none" 
	d="
M277.536926,288.942535 
	C278.088287,289.077850 278.172882,289.261017 278.348816,289.732849 
	C225.327988,290.047272 172.215790,290.077393 119.103592,290.073486 
	C117.809799,290.073395 116.516029,289.694885 115.119385,289.053253 
	C116.488235,288.742157 117.959915,288.982513 119.431671,288.982971 
	C171.977844,288.999329 224.524017,288.993286 277.536926,288.942535 
z"/>
<path fill="#FEFFFF" opacity="1.000000" stroke="none" 
	d="
M111.911980,124.322762 
	C112.152847,123.883324 112.319809,123.918068 112.741478,123.976669 
	C112.997131,174.247665 113.000099,224.494781 112.990143,274.741913 
	C112.989815,276.398407 112.858139,278.054871 112.399086,279.930298 
	C111.946602,267.663971 111.833702,255.178772 111.827904,242.693527 
	C111.809677,203.394669 111.831665,164.095795 111.911980,124.322762 
z"/>
<path fill="#9CFDDF" opacity="1.000000" stroke="none" 
	d="
M230.586899,138.047272 
	C230.676392,184.335938 230.414505,230.734207 230.066071,277.598969 
	C226.778198,275.069305 229.031998,271.523071 229.020126,268.221283 
	C228.975464,255.807693 228.998215,243.393875 228.983475,230.046143 
	C228.969025,200.362961 228.966827,171.613800 228.964615,142.864624 
	C229.388245,141.295364 229.811890,139.726120 230.586899,138.047272 
z"/>
<path fill="#D0FFFF" opacity="1.000000" stroke="none" 
	d="
M268.395691,277.873901 
	C267.949738,244.762009 267.890045,211.444565 267.844452,178.127136 
	C267.830292,167.796280 267.884003,157.465240 267.835144,147.134613 
	C267.825836,145.164688 267.480865,143.196350 267.567566,140.957230 
	C268.229126,141.840195 268.948975,142.992828 268.950317,144.146286 
	C269.001434,188.328339 268.987122,232.510498 268.972778,276.692627 
	C268.972687,277.017914 268.851837,277.343109 268.395691,277.873901 
z"/>
<path fill="#FFF1CD" opacity="1.000000" stroke="none" 
	d="
M212.071808,185.920059 
	C213.381866,187.844620 215.819931,189.761703 215.832779,191.694885 
	C216.025391,220.673431 215.898285,249.654099 215.395432,278.474548 
	C214.923157,278.138947 214.901886,277.963104 214.834183,277.579437 
	C214.787750,277.371613 214.560974,277.009125 214.643265,276.691101 
	C214.715485,275.936646 214.705429,275.500214 214.788086,274.713440 
	C214.816650,273.888062 214.752502,273.413055 214.738831,272.476501 
	C214.805481,249.751373 214.831848,227.487839 214.831436,205.224289 
	C214.831299,198.690338 215.683426,192.017670 211.995636,186.004333 
	C212.021088,185.976288 212.071808,185.920059 212.071808,185.920059 
z"/>
<path fill="#FEF3C9" opacity="1.000000" stroke="none" 
	d="
M176.693665,189.878387 
	C177.082977,218.782150 177.094833,247.957901 177.036743,277.602600 
	C176.643250,277.072449 176.038910,276.073883 176.037033,275.074188 
	C175.984726,247.248474 175.991882,219.422638 176.005707,191.596817 
	C176.005936,191.114624 176.208221,190.632523 176.693665,189.878387 
z"/>
<path fill="#E9FFFF" opacity="1.000000" stroke="none" 
	d="
M228.583344,143.091492 
	C228.966827,171.613800 228.969025,200.362961 228.947632,229.581940 
	C228.616714,229.377548 228.040329,228.703140 228.040833,228.029175 
	C228.062332,199.792206 228.135422,171.555283 228.583344,143.091492 
z"/>
<path fill="#BAFFF4" opacity="1.000000" stroke="none" 
	d="
M248.475327,277.737366 
	C255.002075,277.708038 261.075073,277.756439 267.612000,277.907776 
	C267.415985,278.341095 266.755829,278.959564 266.096130,278.959076 
	C254.172836,278.950043 242.249619,278.866333 230.129028,278.402466 
	C235.961655,277.942657 241.991623,277.878906 248.475327,277.737366 
z"/>
<path fill="#FEF3C9" opacity="1.000000" stroke="none" 
	d="
M214.880615,277.787262 
	C214.901886,277.963104 214.923157,278.138947 214.970215,278.579285 
	C202.441544,278.835388 189.887100,278.827087 177.130798,278.425781 
	C187.987213,278.018707 199.045502,278.004608 210.942841,277.961182 
	C212.519318,277.818390 213.256729,277.704895 214.206406,277.682739 
	C214.418655,277.774078 214.880615,277.787262 214.880615,277.787262 
z"/>
<path fill="#FFD6CF" opacity="1.000000" stroke="none" 
	d="
M123.651711,240.076416 
	C124.075516,252.309372 124.084541,264.720184 124.040276,277.601807 
	C123.665466,277.574310 123.062813,277.075592 123.063583,276.577789 
	C123.082367,264.469879 123.165428,252.362091 123.651711,240.076416 
z"/>
<path fill="#FFD6CF" opacity="1.000000" stroke="none" 
	d="
M142.488251,277.785889 
	C149.009048,277.768707 155.074707,277.824707 161.610443,277.942383 
	C161.414368,278.334015 160.748077,278.951630 160.082047,278.951355 
	C148.165405,278.946075 136.248779,278.865906 124.130157,278.408630 
	C129.963120,277.963379 135.998108,277.911255 142.488251,277.785889 
z"/>
<path fill="#FFD6CF" opacity="1.000000" stroke="none" 
	d="
M162.402893,277.881989 
	C161.942368,265.970886 161.879135,253.862778 161.850830,241.269958 
	C162.258163,241.599854 162.953995,242.414383 162.954285,243.229141 
	C162.958328,254.714401 162.867783,266.199707 162.402893,277.881989 
z"/>
<path fill="#FFF1CD" opacity="1.000000" stroke="none" 
	d="
M196.073898,185.306854 
	C191.664093,185.262512 187.254272,185.218155 182.384521,185.064087 
	C183.577072,184.630615 185.225647,184.053101 186.882751,184.027527 
	C193.657593,183.922958 200.436325,183.917068 207.210510,184.042755 
	C208.722885,184.070831 210.222641,184.778976 211.900009,185.547043 
	C212.071808,185.920059 212.021088,185.976288 211.611908,186.133057 
	C210.132370,186.263092 209.062012,186.236374 207.670303,186.142487 
	C206.912125,186.046295 206.475327,186.017258 205.766388,185.678131 
	C202.354126,185.347626 199.214020,185.327255 196.073898,185.306854 
z"/>
<path fill="#D0FFFF" opacity="1.000000" stroke="none" 
	d="
M260.725952,134.651642 
	C257.156158,135.183914 253.531570,135.273041 249.454498,135.439148 
	C244.809097,135.500626 240.616196,135.485107 235.954010,135.271362 
	C237.817612,134.714417 240.146576,134.083694 242.484161,134.049973 
	C248.544464,133.962570 254.608566,134.137985 260.725952,134.651642 
z"/>
<path fill="#FEF3C9" opacity="1.000000" stroke="none" 
	d="
M181.637268,184.953156 
	C181.195694,185.654388 180.421768,186.394318 179.287491,187.044678 
	C179.719742,186.300674 180.512329,185.646255 181.637268,184.953156 
z"/>
<path fill="#9CFDDF" opacity="1.000000" stroke="none" 
	d="
M235.155853,135.000305 
	C234.572281,135.802429 233.604828,136.571228 232.288742,137.136002 
	C232.884064,136.276962 233.828003,135.621979 235.155853,135.000305 
z"/>
<path fill="#FEF3C9" opacity="1.000000" stroke="none" 
	d="
M177.658234,188.025146 
	C177.861496,188.296478 177.754684,188.669220 177.379364,189.198029 
	C177.189941,188.944916 177.269058,188.535736 177.658234,188.025146 
z"/>
<path fill="#FEF3C9" opacity="1.000000" stroke="none" 
	d="
M178.706543,186.987640 
	C178.826218,187.269394 178.679703,187.616653 178.227417,187.968262 
	C178.094559,187.666138 178.267456,187.359650 178.706543,186.987640 
z"/>
<path fill="#9CFDDF" opacity="1.000000" stroke="none" 
	d="
M231.677948,136.976700 
	C231.843338,137.332092 231.740067,137.736542 231.282379,138.045746 
	C231.088409,137.642242 231.248840,137.334015 231.677948,136.976700 
z"/>
<path fill="#F5A425" opacity="1.000000" stroke="none" 
	d="
M206.038513,185.988235 
	C206.475327,186.017258 206.912125,186.046295 207.727631,186.477600 
	C210.907639,189.894989 211.332626,193.141052 211.242676,197.441925 
	C210.746613,221.156494 210.953781,244.887253 211.128006,268.610901 
	C211.138824,270.085785 212.922974,271.547638 213.909668,273.340820 
	C213.911179,274.099884 213.885101,274.533661 213.522278,274.983093 
	C212.444458,275.647644 211.703400,276.296539 210.962341,276.945435 
	C207.290741,276.946991 203.619141,276.948578 199.477203,276.504639 
	C198.671249,273.268799 198.053024,270.479340 198.044296,267.687958 
	C197.967804,243.202408 197.990814,218.716476 198.005310,194.230667 
	C198.009979,186.338913 198.319641,186.050690 206.038513,185.988235 
z"/>
<path fill="#ECA82B" opacity="1.000000" stroke="none" 
	d="
M205.766388,185.678131 
	C198.319641,186.050690 198.009979,186.338913 198.005310,194.230667 
	C197.990814,218.716476 197.967804,243.202408 198.044296,267.687958 
	C198.053024,270.479340 198.671249,273.268799 199.020111,276.475952 
	C195.492935,277.246368 195.981537,274.703125 195.982056,272.584351 
	C195.989090,243.788223 196.011353,214.992111 196.051880,185.751434 
	C199.214020,185.327255 202.354126,185.347626 205.766388,185.678131 
z"/>
<path fill="#ECA82B" opacity="1.000000" stroke="none" 
	d="
M210.985779,277.167786 
	C211.703400,276.296539 212.444458,275.647644 213.731018,275.016357 
	C214.276520,275.033966 214.695374,275.063812 214.695374,275.063812 
	C214.705429,275.500214 214.715485,275.936646 214.520538,276.756073 
	C214.162476,277.257202 214.055344,277.407990 213.994156,277.591400 
	C213.256729,277.704895 212.519318,277.818390 211.408005,277.884216 
	C211.034119,277.836578 211.009216,277.390106 210.985779,277.167786 
z"/>
<path fill="#ECA82B" opacity="1.000000" stroke="none" 
	d="
M213.882080,273.015533 
	C212.922974,271.547638 211.138824,270.085785 211.128006,268.610901 
	C210.953781,244.887253 210.746613,221.156494 211.242676,197.441925 
	C211.332626,193.141052 210.907639,189.894989 208.048996,186.544769 
	C209.062012,186.236374 210.132370,186.263092 211.586456,186.161102 
	C215.683426,192.017670 214.831299,198.690338 214.831436,205.224289 
	C214.831848,227.487839 214.805481,249.751373 214.536865,272.488373 
	C214.284409,272.961823 213.882080,273.015533 213.882080,273.015533 
z"/>
<path fill="#F4CB53" opacity="1.000000" stroke="none" 
	d="
M213.909668,273.340820 
	C213.882080,273.015533 214.284409,272.961823 214.486374,272.949951 
	C214.752502,273.413055 214.816650,273.888062 214.788086,274.713440 
	C214.695374,275.063812 214.276520,275.033966 214.067780,275.000702 
	C213.885101,274.533661 213.911179,274.099884 213.909668,273.340820 
z"/>
<path fill="#F4CB53" opacity="1.000000" stroke="none" 
	d="
M214.206406,277.682739 
	C214.055344,277.407990 214.162476,277.257202 214.438263,277.074097 
	C214.560974,277.009125 214.787750,277.371613 214.834183,277.579437 
	C214.880615,277.787262 214.418655,277.774078 214.206406,277.682739 
z"/>
</svg>