<?xml version="1.0" standalone="no"?>
<!DOCTYPE svg PUBLIC "-//W3C//DTD SVG 20010904//EN"
 "http://www.w3.org/TR/2001/REC-SVG-20010904/DTD/svg10.dtd">
<svg version="1.0" xmlns="http://www.w3.org/2000/svg"
 width="400.000000pt" height="400.000000pt" viewBox="0 0 400.000000 400.000000"
 preserveAspectRatio="xMidYMid meet">

<g transform="translate(0.000000,400.000000) scale(0.100000,-0.100000)"
fill="#000000" stroke="none">
<path d="M1013 3110 c-10 -17 -48 -84 -85 -148 -70 -120 -77 -142 -55 -160 26
-21 180 -30 276 -15 71 11 82 28 54 85 -45 88 -151 262 -162 266 -6 2 -19 -11
-28 -28z"/>
<path d="M1353 1651 c-108 -9 -107 -9 -111 -203 -2 -88 -1 -171 2 -184 6 -22
8 -22 181 -24 l175 -1 0 184 c0 181 0 184 -24 206 -28 26 -99 34 -223 22z"/>
<path d="M2799 1204 c-10 -12 -14 -55 -14 -164 0 -153 7 -180 44 -180 25 1
306 167 306 181 0 13 -44 41 -212 134 -89 49 -104 53 -124 29z"/>
</g>
</svg>
